<?xml version="1.0" encoding="UTF-8"?>
<svg id="Layer_1" data-name="Layer 1" xmlns="http://www.w3.org/2000/svg" viewBox="0 0 1552 400">
  <defs>
    <style>
      .cls-1 {
        fill: none;
      }

      .cls-2 {
        fill: #e95420;
      }

      .cls-3 {
        fill: #fff;
      }
    </style>
  </defs>
  <g>
    <path d="m418.45,335.21v14.99h-100.1v-176.07h17.28v161.08h82.82Z"/>
    <path d="m484.15,215.8c8.64,0,15.96,1.23,21.98,3.68,6.01,2.46,10.88,5.84,14.61,10.16,3.72,4.32,6.43,9.44,8.13,15.37,1.69,5.93,2.54,12.37,2.54,19.31v82.83c-1.69.51-4.15,1.06-7.37,1.65-3.22.6-6.95,1.23-11.18,1.91-4.24.67-8.94,1.23-14.1,1.65-5.17.42-10.46.64-15.88.64-6.95,0-13.34-.76-19.18-2.29-5.84-1.52-10.92-3.94-15.24-7.24-4.32-3.3-7.71-7.54-10.16-12.7-2.46-5.17-3.68-11.47-3.68-18.93s1.35-13.21,4.06-18.29c2.71-5.08,6.52-9.27,11.43-12.58,4.91-3.3,10.75-5.72,17.53-7.24,6.77-1.52,14.14-2.29,22.1-2.29,2.37,0,4.87.13,7.5.38,2.62.25,5.16.6,7.62,1.02,2.45.42,4.57.85,6.35,1.27,1.78.42,3,.81,3.68,1.14v-8.13c0-4.57-.34-9.02-1.02-13.34-.68-4.32-2.16-8.21-4.45-11.69-2.29-3.47-5.51-6.26-9.65-8.38-4.15-2.12-9.61-3.18-16.39-3.18-9.65,0-16.86.68-21.6,2.03-4.74,1.36-8.22,2.46-10.42,3.3l-2.29-14.48c2.88-1.35,7.32-2.62,13.34-3.81,6.01-1.18,13.25-1.78,21.72-1.78Zm1.52,122.46c6.44,0,12.07-.21,16.9-.63,4.83-.42,8.93-.97,12.32-1.65v-46.24c-1.87-.84-4.83-1.73-8.89-2.67-4.06-.93-9.65-1.4-16.77-1.4-4.07,0-8.3.3-12.7.89-4.41.6-8.47,1.87-12.19,3.81-3.73,1.95-6.78,4.62-9.15,8-2.37,3.39-3.56,7.88-3.56,13.47,0,4.91.8,9.06,2.41,12.45,1.61,3.39,3.89,6.1,6.86,8.13,2.96,2.03,6.52,3.52,10.67,4.45,4.15.93,8.85,1.4,14.1,1.4Z"/>
    <path d="m667.61,345.63c-4.91,1.36-11.52,2.88-19.82,4.57-8.3,1.69-18.46,2.54-30.49,2.54-9.83,0-18.04-1.44-24.64-4.32-6.61-2.88-11.94-6.94-16.01-12.2-4.06-5.25-6.99-11.6-8.76-19.05-1.78-7.45-2.67-15.67-2.67-24.64v-73.68h16.51v68.34c0,9.32.68,17.19,2.03,23.63,1.35,6.44,3.56,11.65,6.61,15.62,3.05,3.98,6.99,6.86,11.81,8.64,4.83,1.78,10.71,2.67,17.66,2.67,7.79,0,14.56-.42,20.33-1.27,5.76-.85,9.4-1.61,10.92-2.29v-115.35h16.51v126.78Z"/>
    <path d="m704.04,223.43c4.91-1.35,11.52-2.88,19.82-4.57,8.3-1.69,18.46-2.54,30.49-2.54,9.99,0,18.33,1.44,25.03,4.32,6.69,2.88,12.02,6.99,16.01,12.32,3.98,5.34,6.82,11.73,8.51,19.18,1.69,7.46,2.54,15.67,2.54,24.64v73.42h-16.51v-68.09c0-9.31-.64-17.19-1.91-23.63-1.27-6.44-3.39-11.69-6.35-15.75-2.96-4.07-6.86-6.99-11.69-8.77s-10.88-2.67-18.17-2.67c-7.79,0-14.53.42-20.2,1.27-5.68.85-9.36,1.61-11.05,2.29v115.34h-16.51v-126.78Z"/>
    <path d="m896.97,353c-10.16,0-19.14-1.61-26.93-4.83-7.79-3.22-14.27-7.83-19.44-13.85-5.17-6.01-9.11-13.21-11.81-21.6-2.71-8.38-4.06-17.66-4.06-27.82s1.4-19.73,4.19-28.2c2.79-8.47,6.82-15.75,12.07-21.85,5.25-6.1,11.6-10.8,19.05-14.1,7.45-3.3,15.84-4.96,25.15-4.96,7.11,0,13.76.6,19.94,1.78,6.18,1.19,10.96,2.71,14.35,4.57l-4.32,14.23c-3.39-1.69-7.2-3.05-11.43-4.07-4.24-1.02-9.91-1.52-17.02-1.52-14.57,0-25.62,4.7-33.16,14.1-7.54,9.4-11.31,22.74-11.31,40.01,0,7.79.85,14.95,2.54,21.47,1.69,6.52,4.45,12.11,8.26,16.77,3.81,4.66,8.72,8.3,14.74,10.92,6.01,2.63,13.34,3.94,21.98,3.94,7.11,0,13.08-.8,17.91-2.41,4.83-1.61,8.34-3.01,10.54-4.19l3.56,14.23c-3.05,1.7-7.84,3.35-14.35,4.95-6.52,1.61-13.34,2.41-20.45,2.41Z"/>
    <path d="m954.26,350.2v-194.11l16.51-3.05v69.61c5.42-2.03,10.92-3.6,16.51-4.7,5.59-1.1,11.18-1.65,16.77-1.65,10.16,0,18.63,1.44,25.41,4.32,6.77,2.88,12.2,6.99,16.26,12.32,4.07,5.34,6.9,11.73,8.51,19.18,1.61,7.46,2.41,15.67,2.41,24.64v73.42h-16.51v-68.09c0-9.31-.64-17.19-1.91-23.63-1.27-6.44-3.39-11.69-6.35-15.75-2.96-4.07-6.9-6.99-11.81-8.77-4.92-1.78-11.1-2.67-18.55-2.67-2.88,0-5.97.25-9.27.76-3.3.51-6.4,1.06-9.27,1.65-2.88.6-5.46,1.23-7.75,1.91-2.29.68-3.77,1.19-4.45,1.52v113.06h-16.51Z"/>
    <path d="m1108.7,397.21h-16.51v-173.78c4.91-1.69,11.18-3.3,18.8-4.83s17.28-2.29,28.96-2.29c9.65,0,18.42,1.57,26.3,4.7,7.88,3.14,14.65,7.67,20.33,13.59,5.67,5.93,10.08,13.13,13.21,21.6,3.13,8.47,4.7,18.04,4.7,28.71,0,10-1.31,19.18-3.94,27.57-2.63,8.38-6.48,15.58-11.56,21.6-5.08,6.01-11.31,10.71-18.67,14.1-7.37,3.39-15.8,5.08-25.28,5.08-8.64,0-16.13-1.23-22.49-3.68-6.35-2.45-10.97-4.78-13.85-6.99v54.62Zm0-70.63c1.52,1.19,3.43,2.46,5.72,3.81,2.29,1.36,4.95,2.63,8,3.81,3.05,1.19,6.35,2.16,9.91,2.92,3.56.76,7.28,1.14,11.18,1.14,8.13,0,14.95-1.4,20.45-4.19,5.5-2.79,9.95-6.61,13.34-11.43,3.39-4.83,5.84-10.5,7.37-17.02,1.52-6.52,2.29-13.42,2.29-20.71,0-17.28-4.32-30.53-12.96-39.76-8.64-9.23-20.07-13.85-34.3-13.85-8.13,0-14.7.38-19.69,1.14-5,.76-8.77,1.57-11.31,2.41v91.72Z"/>
    <path d="m1275.13,215.8c8.64,0,15.96,1.23,21.98,3.68,6.01,2.46,10.88,5.84,14.61,10.16,3.72,4.32,6.43,9.44,8.13,15.37,1.69,5.93,2.54,12.37,2.54,19.31v82.83c-1.69.51-4.15,1.06-7.37,1.65-3.22.6-6.95,1.23-11.18,1.91-4.24.67-8.94,1.23-14.1,1.65-5.17.42-10.46.64-15.88.64-6.95,0-13.34-.76-19.18-2.29-5.84-1.52-10.92-3.94-15.24-7.24-4.32-3.3-7.71-7.54-10.16-12.7-2.46-5.17-3.68-11.47-3.68-18.93s1.35-13.21,4.06-18.29c2.71-5.08,6.52-9.27,11.43-12.58,4.91-3.3,10.75-5.72,17.53-7.24,6.77-1.52,14.14-2.29,22.1-2.29,2.37,0,4.87.13,7.5.38,2.62.25,5.16.6,7.62,1.02,2.45.42,4.57.85,6.35,1.27,1.78.42,3,.81,3.68,1.14v-8.13c0-4.57-.34-9.02-1.02-13.34-.68-4.32-2.16-8.21-4.45-11.69-2.29-3.47-5.51-6.26-9.65-8.38-4.15-2.12-9.61-3.18-16.39-3.18-9.65,0-16.86.68-21.6,2.03-4.74,1.36-8.22,2.46-10.42,3.3l-2.29-14.48c2.88-1.35,7.32-2.62,13.34-3.81,6.01-1.18,13.25-1.78,21.72-1.78Zm1.52,122.46c6.44,0,12.07-.21,16.9-.63,4.83-.42,8.93-.97,12.32-1.65v-46.24c-1.87-.84-4.83-1.73-8.89-2.67-4.06-.93-9.65-1.4-16.77-1.4-4.07,0-8.3.3-12.7.89-4.41.6-8.47,1.87-12.19,3.81-3.73,1.95-6.78,4.62-9.15,8-2.37,3.39-3.56,7.88-3.56,13.47,0,4.91.8,9.06,2.41,12.45,1.61,3.39,3.89,6.1,6.86,8.13,2.96,2.03,6.52,3.52,10.67,4.45,4.15.93,8.85,1.4,14.1,1.4Z"/>
    <path d="m1462.99,346.14c-4.91,1.7-11.18,3.3-18.8,4.83-7.62,1.52-17.28,2.29-28.96,2.29-9.65,0-18.42-1.57-26.3-4.7s-14.65-7.66-20.33-13.59c-5.68-5.93-10.08-13.12-13.21-21.59-3.14-8.47-4.7-18.04-4.7-28.71,0-9.99,1.31-19.18,3.94-27.57,2.62-8.38,6.48-15.62,11.56-21.72s11.31-10.84,18.67-14.23c7.37-3.39,15.79-5.08,25.28-5.08,8.64,0,16.13,1.23,22.48,3.68,6.35,2.46,10.96,4.79,13.85,6.99v-70.63l16.51-3.05v193.09Zm-16.51-103.4c-1.52-1.18-3.43-2.45-5.72-3.81-2.29-1.35-4.95-2.62-8-3.81-3.05-1.18-6.35-2.16-9.91-2.92-3.56-.76-7.28-1.14-11.18-1.14-8.13,0-14.95,1.44-20.45,4.32-5.51,2.88-9.95,6.73-13.34,11.56-3.39,4.83-5.84,10.5-7.37,17.02-1.52,6.52-2.29,13.43-2.29,20.71,0,17.28,4.32,30.53,12.96,39.76,8.64,9.23,20.07,13.85,34.3,13.85,8.13,0,14.69-.38,19.69-1.14,4.99-.76,8.76-1.56,11.31-2.41v-91.97Z"/>
  </g>
  <g>
    <path d="m346.66,131.23c-4.32,0-8.34-.77-12.05-2.32-3.71-1.55-6.94-3.81-9.68-6.78-2.74-2.97-4.9-6.63-6.48-10.99-1.58-4.35-2.37-9.34-2.37-14.95s.85-10.6,2.56-14.95c1.71-4.36,3.98-8.02,6.82-10.99,2.84-2.97,6.13-5.21,9.87-6.73,3.74-1.52,7.65-2.27,11.71-2.27,2.52,0,4.81.16,6.87.48,2.06.32,3.87.73,5.42,1.21,1.55.48,2.87.97,3.97,1.45,1.1.48,1.94.92,2.52,1.31l-2.13,5.71c-1.61-.97-3.66-1.92-6.15-2.86-2.48-.93-5.57-1.4-9.24-1.4-4.2,0-7.86.71-10.99,2.13-3.13,1.42-5.76,3.42-7.89,6-2.13,2.58-3.73,5.65-4.79,9.2-1.06,3.55-1.6,7.49-1.6,11.81s.53,8.47,1.6,12.05,2.63,6.63,4.69,9.15c2.06,2.52,4.6,4.45,7.6,5.81,3,1.35,6.44,2.03,10.31,2.03,4.26,0,7.82-.4,10.7-1.21,2.87-.81,5.05-1.63,6.53-2.47l1.84,5.61c-.45.32-1.23.69-2.32,1.11-1.1.42-2.48.86-4.16,1.31-1.68.45-3.61.82-5.81,1.11-2.19.29-4.65.44-7.36.44Z"/>
    <path d="m391.44,78.58c3.29,0,6.08.47,8.37,1.4,2.29.94,4.14,2.23,5.56,3.87,1.42,1.65,2.45,3.6,3.1,5.86.64,2.26.97,4.71.97,7.36v31.55c-.65.19-1.58.4-2.81.63-1.23.23-2.65.47-4.26.73-1.61.26-3.4.47-5.37.63-1.97.16-3.98.24-6.05.24-2.65,0-5.08-.29-7.31-.87-2.23-.58-4.16-1.5-5.81-2.76-1.65-1.26-2.94-2.87-3.87-4.84-.94-1.97-1.4-4.37-1.4-7.21s.52-5.03,1.55-6.97c1.03-1.94,2.48-3.53,4.36-4.79,1.87-1.26,4.1-2.18,6.68-2.76,2.58-.58,5.39-.87,8.42-.87.9,0,1.85.05,2.86.15,1,.1,1.97.23,2.9.39.93.16,1.74.32,2.42.48.68.16,1.14.31,1.4.44v-3.1c0-1.74-.13-3.44-.39-5.08s-.82-3.13-1.69-4.45c-.87-1.32-2.1-2.39-3.68-3.19-1.58-.81-3.66-1.21-6.24-1.21-3.68,0-6.42.26-8.23.77-1.81.52-3.13.94-3.97,1.26l-.87-5.52c1.1-.52,2.79-1,5.08-1.45,2.29-.45,5.05-.68,8.28-.68Zm.58,46.65c2.45,0,4.6-.08,6.44-.24,1.84-.16,3.4-.37,4.69-.63v-17.62c-.71-.32-1.84-.66-3.39-1.02-1.55-.35-3.68-.53-6.39-.53-1.55,0-3.16.11-4.84.34-1.68.23-3.23.71-4.65,1.45-1.42.74-2.58,1.76-3.48,3.05-.9,1.29-1.35,3-1.35,5.13,0,1.87.3,3.45.92,4.74.61,1.29,1.48,2.32,2.61,3.1,1.13.77,2.48,1.34,4.07,1.69,1.58.36,3.37.53,5.37.53Z"/>
    <path d="m423.03,81.48c1.87-.52,4.39-1.1,7.55-1.74,3.16-.64,7.03-.97,11.61-.97,3.81,0,6.98.55,9.53,1.65,2.55,1.1,4.58,2.66,6.1,4.69,1.52,2.03,2.6,4.47,3.24,7.31.64,2.84.97,5.97.97,9.39v27.97h-6.29v-25.94c0-3.55-.24-6.55-.73-9s-1.29-4.45-2.42-6c-1.13-1.55-2.61-2.66-4.45-3.34-1.84-.68-4.15-1.02-6.92-1.02-2.97,0-5.53.16-7.69.48-2.16.32-3.57.61-4.21.87v43.94h-6.29v-48.3Z"/>
    <path d="m518.5,104.81c0,3.94-.57,7.52-1.69,10.74-1.13,3.23-2.71,5.97-4.74,8.23-2.03,2.26-4.44,4.02-7.21,5.28-2.77,1.26-5.84,1.89-9.19,1.89s-6.42-.63-9.2-1.89c-2.77-1.26-5.18-3.02-7.21-5.28-2.03-2.26-3.61-5-4.74-8.23-1.13-3.23-1.69-6.81-1.69-10.74s.56-7.52,1.69-10.74c1.13-3.23,2.71-5.98,4.74-8.28,2.03-2.29,4.44-4.07,7.21-5.32,2.77-1.26,5.84-1.89,9.2-1.89s6.42.63,9.19,1.89c2.77,1.26,5.18,3.03,7.21,5.32,2.03,2.29,3.61,5.05,4.74,8.28,1.13,3.23,1.69,6.81,1.69,10.74Zm-6.68,0c0-6.26-1.45-11.24-4.36-14.95-2.9-3.71-6.84-5.56-11.81-5.56s-8.9,1.86-11.81,5.56c-2.9,3.71-4.35,8.7-4.35,14.95s1.45,11.23,4.35,14.91c2.9,3.68,6.84,5.52,11.81,5.52s8.9-1.84,11.81-5.52c2.9-3.68,4.36-8.65,4.36-14.91Z"/>
    <path d="m529.83,81.48c1.87-.52,4.39-1.1,7.55-1.74,3.16-.64,7.03-.97,11.61-.97,3.81,0,6.98.55,9.53,1.65,2.55,1.1,4.58,2.66,6.1,4.69,1.52,2.03,2.6,4.47,3.24,7.31.64,2.84.97,5.97.97,9.39v27.97h-6.29v-25.94c0-3.55-.24-6.55-.73-9s-1.29-4.45-2.42-6c-1.13-1.55-2.61-2.66-4.45-3.34-1.84-.68-4.15-1.02-6.92-1.02-2.97,0-5.53.16-7.69.48-2.16.32-3.57.61-4.21.87v43.94h-6.29v-48.3Z"/>
    <path d="m589.91,64.64c0,1.49-.45,2.66-1.35,3.53-.9.87-2,1.31-3.29,1.31s-2.39-.44-3.29-1.31c-.9-.87-1.35-2.05-1.35-3.53s.45-2.66,1.35-3.53c.9-.87,2-1.31,3.29-1.31s2.39.44,3.29,1.31c.9.87,1.35,2.05,1.35,3.53Zm-1.45,65.14h-6.29v-50.04h6.29v50.04Z"/>
    <path d="m623.21,130.85c-3.87,0-7.29-.61-10.26-1.84-2.97-1.22-5.44-2.98-7.4-5.27-1.97-2.29-3.47-5.03-4.5-8.23-1.03-3.19-1.55-6.73-1.55-10.6s.53-7.52,1.6-10.74c1.07-3.23,2.6-6,4.6-8.32,2-2.32,4.42-4.11,7.26-5.37,2.84-1.26,6.03-1.89,9.58-1.89,2.71,0,5.24.23,7.6.68,2.35.45,4.18,1.03,5.47,1.74l-1.65,5.42c-1.29-.64-2.74-1.16-4.36-1.55-1.61-.39-3.77-.58-6.48-.58-5.55,0-9.76,1.79-12.63,5.37-2.87,3.58-4.31,8.66-4.31,15.24,0,2.97.32,5.7.97,8.18.64,2.48,1.69,4.61,3.15,6.39,1.45,1.78,3.32,3.16,5.61,4.16,2.29,1,5.08,1.5,8.37,1.5,2.71,0,4.98-.31,6.82-.92,1.84-.61,3.18-1.14,4.02-1.6l1.36,5.42c-1.16.65-2.99,1.27-5.47,1.89-2.48.61-5.08.92-7.79.92Z"/>
    <path d="m661.08,78.58c3.29,0,6.08.47,8.37,1.4,2.29.94,4.14,2.23,5.56,3.87,1.42,1.65,2.45,3.6,3.1,5.86.64,2.26.97,4.71.97,7.36v31.55c-.65.19-1.58.4-2.81.63-1.23.23-2.65.47-4.26.73-1.61.26-3.4.47-5.37.63-1.97.16-3.98.24-6.05.24-2.65,0-5.08-.29-7.31-.87-2.23-.58-4.16-1.5-5.81-2.76-1.65-1.26-2.94-2.87-3.87-4.84-.94-1.97-1.4-4.37-1.4-7.21s.52-5.03,1.55-6.97c1.03-1.94,2.48-3.53,4.36-4.79,1.87-1.26,4.1-2.18,6.68-2.76,2.58-.58,5.39-.87,8.42-.87.9,0,1.85.05,2.86.15,1,.1,1.97.23,2.9.39.93.16,1.74.32,2.42.48.68.16,1.14.31,1.4.44v-3.1c0-1.74-.13-3.44-.39-5.08s-.82-3.13-1.69-4.45c-.87-1.32-2.1-2.39-3.68-3.19-1.58-.81-3.66-1.21-6.24-1.21-3.68,0-6.42.26-8.23.77-1.81.52-3.13.94-3.97,1.26l-.87-5.52c1.1-.52,2.79-1,5.08-1.45,2.29-.45,5.05-.68,8.28-.68Zm.58,46.65c2.45,0,4.6-.08,6.44-.24,1.84-.16,3.4-.37,4.69-.63v-17.62c-.71-.32-1.84-.66-3.39-1.02-1.55-.35-3.68-.53-6.39-.53-1.55,0-3.16.11-4.84.34-1.68.23-3.23.71-4.65,1.45-1.42.74-2.58,1.76-3.48,3.05-.9,1.29-1.35,3-1.35,5.13,0,1.87.3,3.45.92,4.74.61,1.29,1.48,2.32,2.61,3.1,1.13.77,2.48,1.34,4.07,1.69,1.58.36,3.37.53,5.37.53Z"/>
    <path d="m705.23,130.65c-2.13-.07-3.99-.34-5.57-.82-1.58-.48-2.9-1.23-3.97-2.23-1.06-1-1.87-2.29-2.42-3.87-.55-1.58-.82-3.56-.82-5.95v-61.94l6.29-1.16v62.91c0,1.55.15,2.79.44,3.73.29.94.73,1.68,1.31,2.23.58.55,1.34.95,2.27,1.21.93.26,2.05.48,3.34.68l-.87,5.23Z"/>
  </g>
  <rect class="cls-2" x="0" width="254.06" height="400"/>
  <rect class="cls-1" x="30.25" y="169.38" width="193.57" height="193.57"/>
  <path class="cls-3" d="m45.89,223.51l8.88-13.29c.82-1.21,1.34-1.24,2.24-.81,19.56,11.29,37.09,12.89,55.18,5.06,17.98-7.79,28.79-21.57,34.01-43.29.55-1.96,1.27-1.95,1.77-1.88l15.53,3.37c2.62.66,2.53,1.38,2.46,1.91-3.44,25.46-21.08,47.83-46.05,58.39-25.38,10.91-52.94,8.51-73.76-6.42-.42-.37-1.39-1.36-.24-3.04Zm77.39,128.52l15.92.87c2.68.05,2.75-.66,2.82-1.19,3.44-25.46-7.64-51.71-28.91-68.5-21.58-17.26-48.8-22.26-72.83-13.38-.5.25-1.7.94-1.04,2.85l5.04,15.18c.48,1.38.96,1.55,1.94,1.37,21.85-5.69,39.18-2.59,54.54,9.76,15.27,12.28,22.04,28.43,21.3,50.83.02,1.97.71,2.15,1.21,2.22Zm10.21-106.1c-.72-.1-1.44-.15-2.14-.15-3.23,0-6.28,1-8.77,2.9-3.04,2.31-5.01,5.79-5.55,9.79-.53,3.89.46,7.73,2.77,10.8,2.34,3.11,5.81,5.12,9.77,5.66,8,1.08,15.38-4.55,16.46-12.55,1.1-8.13-4.41-15.37-12.55-16.46Zm79.52-26.73l-7.39-14.15c-1.05-2.33-1.89-2.1-2.76-1.81-23.63,10.19-39.94,32.6-43.63,59.97-3.7,27.39,6.1,53.35,26.21,69.43.45.4.9.54,1.39.5.57-.05,1.16-.37,1.53-.83l10.39-12.46c.96-1.2.55-1.82.05-2.34-16.29-16.04-22.39-31.98-19.74-51.63,2.67-19.76,13.09-33.92,32.79-44.58,1.56-.94,1.31-1.75,1.16-2.11Z"/>
</svg>